<?xml version="1.0" encoding="UTF-8" standalone="no"?>
<!-- Created with Inkscape (http://www.inkscape.org/) -->

<svg
   width="512"
   height="512"
   viewBox="0 0 512 512"
   version="1.1"
   id="svg1"
   xml:space="preserve"
   inkscape:version="1.3 (0e150ed, 2023-07-21)"
   sodipodi:docname="fan.svg"
   xmlns:inkscape="http://www.inkscape.org/namespaces/inkscape"
   xmlns:sodipodi="http://sodipodi.sourceforge.net/DTD/sodipodi-0.dtd"
   xmlns="http://www.w3.org/2000/svg"
   xmlns:svg="http://www.w3.org/2000/svg"><sodipodi:namedview
     id="namedview1"
     pagecolor="#ffffff"
     bordercolor="#000000"
     borderopacity="0.25"
     inkscape:showpageshadow="2"
     inkscape:pageopacity="0.0"
     inkscape:pagecheckerboard="0"
     inkscape:deskcolor="#d1d1d1"
     inkscape:document-units="px"
     inkscape:zoom="1.149567"
     inkscape:cx="304.46246"
     inkscape:cy="288.80439"
     inkscape:window-width="1712"
     inkscape:window-height="1041"
     inkscape:window-x="0"
     inkscape:window-y="43"
     inkscape:window-maximized="1"
     inkscape:current-layer="layer1" /><defs
     id="defs1" /><g
     inkscape:label="Layer 1"
     inkscape:groupmode="layer"
     id="layer1"><g
       id="g8"
       transform="matrix(1.1167692,0,0,1.1167692,-199.38645,495.96747)"><path
         style="fill:#ccdca6"
         d="m 397.6769,-23.462776 c 0.72187,-0.288871 1.58437,-0.253345 1.91666,0.07895 0.33229,0.332291 -0.25833,0.56864 -1.3125,0.525219 -1.16494,-0.04798 -1.4019,-0.28494 -0.60416,-0.604166 z m 19,0 c 0.72187,-0.288871 1.58437,-0.253345 1.91666,0.07895 0.33229,0.332291 -0.25833,0.56864 -1.3125,0.525219 -1.16494,-0.04798 -1.4019,-0.28494 -0.60416,-0.604166 z m -167.84139,-33.066886 -6.47111,-6.75 6.75,6.471111 c 6.26968,6.010644 7.20713,7.028889 6.47111,7.028889 -0.15339,0 -3.19089,-3.0375 -6.75,-6.75 z m 317.02889,0.25 c 3.54322,-3.575 6.66722,-6.5 6.94222,-6.5 0.275,0 -2.399,2.925 -5.94222,6.5 -3.54323,3.575 -6.66723,6.5 -6.94223,6.5 -0.275,0 2.399,-2.925 5.94223,-6.5 z m -113.1875,-1.183114 c 0.72187,-0.288871 1.58437,-0.253345 1.91666,0.07895 0.33229,0.332292 -0.25833,0.56864 -1.3125,0.525219 -1.16494,-0.04798 -1.4019,-0.28494 -0.60416,-0.604166 z m 23,0 c 0.72187,-0.288871 1.58437,-0.253345 1.91666,0.07895 0.33229,0.332292 -0.25833,0.56864 -1.3125,0.525219 -1.16494,-0.04798 -1.4019,-0.28494 -0.60416,-0.604166 z M 276.73684,-74.529662 c -1.24387,-1.586056 -1.2085,-1.621426 0.37756,-0.377556 0.9625,0.754845 1.75,1.542345 1.75,1.75 0,0.823035 -0.82119,0.293304 -2.12756,-1.372444 z m 260.12756,1.372444 c 0,-0.207655 0.7875,-0.995155 1.75,-1.75 1.58605,-1.24387 1.62142,-1.2085 0.37755,0.377556 -1.30637,1.665748 -2.12755,2.195479 -2.12755,1.372444 z m -128.12756,-3.372444 c -1.24387,-1.586056 -1.2085,-1.621426 0.37756,-0.377556 1.66574,1.30637 2.19548,2.127556 1.37244,2.127556 -0.20765,0 -0.99515,-0.7875 -1.75,-1.75 z m -6.46746,-6.5 -1.90498,-2.25 2.25,1.904987 c 2.11444,1.790218 2.70524,2.595013 1.90498,2.595013 -0.18975,0 -1.20225,-1.0125 -2.25,-2.25 z m 126.09502,0.25 c 0.99548,-1.1 2.03497,-2 2.30997,-2 0.275,0 -0.31449,0.9 -1.30997,2 -0.99549,1.1 -2.03498,2 -2.30998,2 -0.275,0 0.31449,-0.9 1.30998,-2 z m -261.62756,-1.75 c -1.24387,-1.586056 -1.2085,-1.621426 0.37756,-0.377556 0.9625,0.754845 1.75,1.542345 1.75,1.75 0,0.823035 -0.82119,0.293304 -2.12756,-1.372444 z m 280.12756,1.372444 c 0,-0.207655 0.7875,-0.995155 1.75,-1.75 1.58605,-1.24387 1.62142,-1.2085 0.37755,0.377556 -1.30637,1.665748 -2.12755,2.195479 -2.12755,1.372444 z m -13,-5.122444 c 1.29174,-1.375 2.57362,-2.5 2.84862,-2.5 0.275,0 -0.55688,1.125 -1.84862,2.5 -1.29175,1.375 -2.57363,2.5 -2.84863,2.5 -0.275,0 0.55688,-1.125 1.84863,-2.5 z M 385.22963,-135.27967 c 0.003,-5.5 0.17053,-7.62241 0.37317,-4.71648 0.20264,2.90594 0.20051,7.40594 -0.005,10 -0.20525,2.59407 -0.37105,0.21648 -0.36844,-5.28352 z m -105.55273,7.81689 c 0.72187,-0.28887 1.58437,-0.25335 1.91666,0.0789 0.33229,0.33229 -0.25833,0.56864 -1.3125,0.52522 -1.16494,-0.048 -1.4019,-0.28494 -0.60416,-0.60417 z m 270.26644,-6.90021 c 0.048,-1.16495 0.28494,-1.40191 0.60417,-0.60418 0.28887,0.72188 0.25334,1.58439 -0.079,1.91668 -0.33229,0.33229 -0.56864,-0.25834 -0.52522,-1.3125 z m -234.12074,-5.66668 c 2.45202,-2.61249 4.58952,-4.75 4.75,-4.75 0.75089,0 -0.043,0.89783 -4.4582,5.0418 l -4.75,4.4582 z m 70.23674,-20.25 c 0.0204,-1.65 0.2445,-2.20393 0.49805,-1.23097 0.25354,0.97297 0.23687,2.32297 -0.0371,3 -0.27392,0.67704 -0.48136,-0.11903 -0.46099,-1.76903 z m -48.69494,-5.5 c 0.99548,-1.1 2.03497,-2 2.30997,-2 0.275,0 -0.31449,0.9 -1.30997,2 -0.99549,1.1 -2.03498,2 -2.30998,2 -0.275,0 0.31449,-0.9 1.30998,-2 z m 63.3125,-1.68311 c 0.72187,-0.28887 1.58437,-0.25335 1.91666,0.079 0.33229,0.33229 -0.25833,0.56864 -1.3125,0.52522 -1.16494,-0.048 -1.4019,-0.28494 -0.60416,-0.60417 z m 13,0 c 0.72187,-0.28887 1.58437,-0.25335 1.91666,0.079 0.33229,0.33229 -0.25833,0.56864 -1.3125,0.52522 -1.16494,-0.048 -1.4019,-0.28494 -0.60416,-0.60417 z m -68.8125,-5.69444 c 0,-0.20766 0.7875,-0.99516 1.75,-1.75 1.58605,-1.24387 1.62142,-1.2085 0.37755,0.37755 -1.30637,1.66575 -2.12755,2.19548 -2.12755,1.37245 z m 156.8125,-4.30556 c 0.72187,-0.28887 1.58437,-0.25335 1.91666,0.079 0.33229,0.33229 -0.25833,0.56864 -1.3125,0.52522 -1.16494,-0.048 -1.4019,-0.28494 -0.60416,-0.60417 z M 228.94334,-186.363 c 0.048,-1.16494 0.28494,-1.4019 0.60417,-0.60417 0.28887,0.72188 0.25334,1.58438 -0.0789,1.91667 -0.33229,0.33229 -0.56864,-0.25833 -0.52522,-1.3125 z m -13,-19 c 0.048,-1.16494 0.28494,-1.4019 0.60417,-0.60417 0.28887,0.72188 0.25334,1.58438 -0.0789,1.91667 -0.33229,0.33229 -0.56864,-0.25833 -0.52522,-1.3125 z m 383,0 c 0.048,-1.16494 0.28494,-1.4019 0.60417,-0.60417 0.28887,0.72188 0.25334,1.58438 -0.079,1.91667 -0.33229,0.33229 -0.56864,-0.25833 -0.52522,-1.3125 z m -239,-3 c 0.048,-1.16494 0.28494,-1.4019 0.60417,-0.60417 0.28887,0.72188 0.25334,1.58438 -0.0789,1.91667 -0.33229,0.33229 -0.56864,-0.25833 -0.52522,-1.3125 z m -131,-4 c 0.048,-1.16494 0.28494,-1.4019 0.60417,-0.60417 0.28887,0.72188 0.25334,1.58438 -0.0789,1.91667 -0.33229,0.33229 -0.56864,-0.25833 -0.52522,-1.3125 z m 131,-9 c 0.048,-1.16494 0.28494,-1.4019 0.60417,-0.60417 0.28887,0.72188 0.25334,1.58438 -0.0789,1.91667 -0.33229,0.33229 -0.56864,-0.25833 -0.52522,-1.3125 z m -144,-3 c 0.048,-1.16494 0.28494,-1.4019 0.60417,-0.60417 0.28887,0.72188 0.25334,1.58438 -0.0789,1.91667 -0.33229,0.33229 -0.56864,-0.25833 -0.52522,-1.3125 z m 383,0 c 0.048,-1.16494 0.28494,-1.4019 0.60417,-0.60417 0.28887,0.72188 0.25334,1.58438 -0.079,1.91667 -0.33229,0.33229 -0.56864,-0.25833 -0.52522,-1.3125 z M 400.6769,-262.46278 c 0.72187,-0.28887 1.58437,-0.25335 1.91666,0.079 0.33229,0.33229 -0.25833,0.56864 -1.3125,0.52522 -1.16494,-0.048 -1.4019,-0.28494 -0.60416,-0.60417 z m 13,0 c 0.72187,-0.28887 1.58437,-0.25335 1.91666,0.079 0.33229,0.33229 -0.25833,0.56864 -1.3125,0.52522 -1.16494,-0.048 -1.4019,-0.28494 -0.60416,-0.60417 z m -11.65461,-11.31689 c 0,-1.375 0.22697,-1.9375 0.50439,-1.25 0.27741,0.6875 0.27741,1.8125 0,2.5 -0.27742,0.6875 -0.50439,0.125 -0.50439,-1.25 z m -0.0789,-9.58332 c 0.048,-1.16495 0.28494,-1.40191 0.60417,-0.60418 0.28887,0.72188 0.25334,1.58439 -0.0789,1.91668 -0.33229,0.33229 -0.56864,-0.25834 -0.52522,-1.3125 z m -97.31103,-3.1414 c 1.79735,-0.22256 4.49735,-0.21797 6,0.0102 1.50265,0.22816 0.0321,0.41027 -3.26791,0.40465 -3.3,-0.006 -4.52944,-0.1923 -2.73209,-0.41486 z m 222.56023,-14.77527 c 0.004,-3.85 0.18518,-5.30246 0.40165,-3.22769 0.21648,2.07476 0.21285,5.22476 -0.008,7 -0.22091,1.77523 -0.39803,0.0777 -0.39359,-3.77231 z m -142.17025,-39.5 c 0,-1.375 0.22697,-1.9375 0.50439,-1.25 0.27741,0.6875 0.27741,1.8125 0,2.5 -0.27742,0.6875 -0.50439,0.125 -0.50439,-1.25 z m -119.15789,-3.37755 c 0,-0.20766 0.7875,-0.99516 1.75,-1.75 1.58605,-1.24387 1.62142,-1.2085 0.37755,0.37755 -1.30637,1.66575 -2.12755,2.19548 -2.12755,1.37245 z m 281.87244,-1.37245 c -1.24387,-1.58605 -1.2085,-1.62142 0.37756,-0.37755 1.66574,1.30637 2.19548,2.12755 1.37244,2.12755 -0.20765,0 -0.99515,-0.7875 -1.75,-1.75 z m -162.71455,-3.25 c 0,-1.375 0.22697,-1.9375 0.50439,-1.25 0.27741,0.6875 0.27741,1.8125 0,2.5 -0.27742,0.6875 -0.50439,0.125 -0.50439,-1.25 z m -109.15789,-5.37755 c 0,-0.20766 0.7875,-0.99516 1.75,-1.75 1.58605,-1.24387 1.62142,-1.2085 0.37755,0.37755 -1.30637,1.66575 -2.12755,2.19548 -2.12755,1.37245 z m 261.87244,-1.37245 c -1.24387,-1.58605 -1.2085,-1.62142 0.37756,-0.37755 0.9625,0.75484 1.75,1.54234 1.75,1.75 0,0.82303 -0.82119,0.2933 -2.12756,-1.37245 z m -37,-8 c -1.24387,-1.58605 -1.2085,-1.62142 0.37756,-0.37755 1.66574,1.30637 2.19548,2.12755 1.37244,2.12755 -0.20765,0 -0.99515,-0.7875 -1.75,-1.75 z m -251.87244,-9.75 c 3.54322,-3.575 6.66722,-6.5 6.94222,-6.5 0.275,0 -2.399,2.925 -5.94222,6.5 -3.54323,3.575 -6.66723,6.5 -6.94223,6.5 -0.275,0 2.399,-2.925 5.94223,-6.5 z m 316.97111,-0.25 -6.47111,-6.75 6.75,6.47111 c 3.7125,3.55912 6.75,6.59662 6.75,6.75 0,0.73602 -1.01825,-0.20142 -7.02889,-6.47111 z m -136.15861,-16.93311 c 0.72187,-0.28887 1.58437,-0.25335 1.91666,0.0789 0.33229,0.33229 -0.25833,0.56864 -1.3125,0.52522 -1.16494,-0.048 -1.4019,-0.28494 -0.60416,-0.60417 z m 16,0 c 0.72187,-0.28887 1.58437,-0.25335 1.91666,0.0789 0.33229,0.33229 -0.25833,0.56864 -1.3125,0.52522 -1.16494,-0.048 -1.4019,-0.28494 -0.60416,-0.60417 z m -48,-16 c 0.72187,-0.28887 1.58437,-0.25335 1.91666,0.0789 0.33229,0.33229 -0.25833,0.56864 -1.3125,0.52522 -1.16494,-0.048 -1.4019,-0.28494 -0.60416,-0.60417 z m 19,0 c 0.72187,-0.28887 1.58437,-0.25335 1.91666,0.0789 0.33229,0.33229 -0.25833,0.56864 -1.3125,0.52522 -1.16494,-0.048 -1.4019,-0.28494 -0.60416,-0.60417 z"
         id="path7" /><path
         style="fill:#bbd187"
         d="m 405.73684,-79.529662 c -1.24387,-1.586056 -1.2085,-1.621426 0.37756,-0.377556 1.66574,1.30637 2.19548,2.127556 1.37244,2.127556 -0.20765,0 -0.99515,-0.7875 -1.75,-1.75 z M 549.94334,-123.363 c 0.048,-1.16494 0.28494,-1.40189 0.60417,-0.60416 0.28887,0.72188 0.25334,1.58437 -0.079,1.91666 -0.33229,0.33229 -0.56864,-0.25833 -0.52522,-1.3125 z m -164,-32.99999 c 0.048,-1.16495 0.28494,-1.40191 0.60417,-0.60418 0.28887,0.72188 0.25334,1.58439 -0.0789,1.91668 -0.33229,0.33229 -0.56864,-0.25834 -0.52522,-1.3125 z m 52.92106,-21.72958 c 0,-0.1721 1.4625,-1.63461 3.25,-3.25 l 3.25,-2.9371 -2.9371,3.25 c -2.73778,3.02946 -3.5629,3.70966 -3.5629,2.9371 z m -209.92106,-11.27042 c 0.048,-1.16495 0.28494,-1.40191 0.60417,-0.60418 0.28887,0.72188 0.25334,1.58439 -0.0789,1.91668 -0.33229,0.33229 -0.56864,-0.25834 -0.52522,-1.3125 z m 224.7935,-5.16668 c -1.24387,-1.58605 -1.2085,-1.62142 0.37756,-0.37755 0.9625,0.75484 1.75,1.54234 1.75,1.75 0,0.82303 -0.82119,0.2933 -2.12756,-1.37245 z m -82.87244,-51.56291 c 0,-0.1721 1.4625,-1.6346 3.25,-3.25 l 3.25,-2.93709 -2.9371,3.25 c -2.73778,3.02946 -3.5629,3.70965 -3.5629,2.93709 z m 70.43709,-2.93709 -2.93709,-3.25 3.25,2.93709 c 3.02945,2.73778 3.70965,3.56291 2.93709,3.56291 -0.1721,0 -1.6346,-1.4625 -3.25,-3.25 z M 250.8644,-259.15721 c 0,-0.20767 0.7875,-0.99516 1.75,-1.75 1.58605,-1.24388 1.62142,-1.20851 0.37755,0.37754 -1.30637,1.66575 -2.12755,2.19549 -2.12755,1.37246 z m 6,-6 c 0,-0.20767 0.7875,-0.99516 1.75,-1.75 1.58605,-1.24388 1.62142,-1.20851 0.37755,0.37754 -1.30637,1.66575 -2.12755,2.19549 -2.12755,1.37246 z m 128.15789,-79.62246 c 0,-1.375 0.22697,-1.9375 0.50439,-1.25 0.27741,0.6875 0.27741,1.8125 0,2.5 -0.27742,0.6875 -0.50439,0.125 -0.50439,-1.25 z"
         id="path6" /><path
         style="fill:#aac569"
         d="m 550.0964,-127.77966 c 0,-1.925 0.20579,-2.7125 0.45732,-1.75 0.25153,0.9625 0.25153,2.53749 0,3.5 -0.25153,0.9625 -0.45732,0.17499 -0.45732,-1.75 z m -301.79491,-15.25 -2.93709,-3.25 3.25,2.93709 c 1.7875,1.61539 3.25,3.0779 3.25,3.25 0,0.77256 -0.82513,0.0924 -3.56291,-2.93709 z m 93.06291,-27.75 c 0.99548,-1.1 2.03497,-2 2.30997,-2 0.275,0 -0.31449,0.9 -1.30997,2 -0.99549,1.1 -2.03498,2 -2.30998,2 -0.275,0 0.31449,-0.9 1.30998,-2 z m 164.5,-80.5 c 1.86578,-1.925 3.61733,-3.5 3.89233,-3.5 0.275,0 -1.02655,1.575 -2.89233,3.5 -1.86579,1.925 -3.61734,3.5 -3.89234,3.5 -0.275,0 1.02655,-1.575 2.89234,-3.5 z m -252,-10.87755 c 0,-0.20766 0.7875,-0.99516 1.75,-1.75 1.58605,-1.24387 1.62142,-1.2085 0.37755,0.37755 -1.30637,1.66575 -2.12755,2.19548 -2.12755,1.37245 z m 249.87244,-97.37245 c -1.24387,-1.58605 -1.2085,-1.62142 0.37756,-0.37755 1.66574,1.30637 2.19548,2.12755 1.37244,2.12755 -0.20765,0 -0.99515,-0.7875 -1.75,-1.75 z m -104.87244,-14.75 c 1.29174,-1.375 2.57362,-2.5 2.84862,-2.5 0.275,0 -0.55688,1.125 -1.84862,2.5 -1.29175,1.375 -2.57363,2.5 -2.84863,2.5 -0.275,0 0.55688,-1.125 1.84863,-2.5 z m 34.8125,-16.18311 c 0.72187,-0.28887 1.58437,-0.25335 1.91666,0.0789 0.33229,0.33229 -0.25833,0.56864 -1.3125,0.52522 -1.16494,-0.048 -1.4019,-0.28494 -0.60416,-0.60417 z"
         id="path5" /><path
         style="fill:#9d9d9d"
         d="m 390.6144,8.558057 c 0.6875,-0.277412 1.8125,-0.277412 2.5,0 0.6875,0.277412 0.125,0.504386 -1.25,0.504386 -1.375,0 -1.9375,-0.226974 -1.25,-0.504386 z m 32,0 c 0.6875,-0.277412 1.8125,-0.277412 2.5,0 0.6875,0.277412 0.125,0.504386 -1.25,0.504386 -1.375,0 -1.9375,-0.226974 -1.25,-0.504386 z M 380.6769,7.537224 c 0.72187,-0.288871 1.58437,-0.253345 1.91666,0.07895 0.33229,0.332292 -0.25833,0.56864 -1.3125,0.525219 -1.16494,-0.04798 -1.4019,-0.28494 -0.60416,-0.604166 z m 53,0 c 0.72187,-0.288871 1.58437,-0.253345 1.91666,0.07895 0.33229,0.332292 -0.25833,0.56864 -1.3125,0.525219 -1.16494,-0.04798 -1.4019,-0.28494 -0.60416,-0.604166 z m -40.0625,-30.979167 c 0.6875,-0.277412 1.8125,-0.277412 2.5,0 0.6875,0.277412 0.125,0.504386 -1.25,0.504386 -1.375,0 -1.9375,-0.226974 -1.25,-0.504386 z m 26,0 c 0.6875,-0.277412 1.8125,-0.277412 2.5,0 0.6875,0.277412 0.125,0.504386 -1.25,0.504386 -1.375,0 -1.9375,-0.226974 -1.25,-0.504386 z m -35.9375,-1.020833 c 0.72187,-0.288871 1.58437,-0.253345 1.91666,0.07895 0.33229,0.332291 -0.25833,0.56864 -1.3125,0.525219 -1.16494,-0.04798 -1.4019,-0.28494 -0.60416,-0.604166 z m 47,0 c 0.72187,-0.288871 1.58437,-0.253345 1.91666,0.07895 0.33229,0.332291 -0.25833,0.56864 -1.3125,0.525219 -1.16494,-0.04798 -1.4019,-0.28494 -0.60416,-0.604166 z m 145.1875,-42.694442 c 0,-0.207655 0.7875,-0.995155 1.75,-1.75 1.58605,-1.24387 1.62142,-1.2085 0.37755,0.377556 -1.30637,1.665748 -2.12755,2.195479 -2.12755,1.372444 z m -296.12756,-4.372444 c -1.24387,-1.586056 -1.2085,-1.621426 0.37756,-0.377556 0.9625,0.754845 1.75,1.542345 1.75,1.75 0,0.823035 -0.82119,0.293304 -2.12756,-1.372444 z m 254.12756,1.372444 c 0,-0.207655 0.7875,-0.995155 1.75,-1.75 1.58605,-1.24387 1.62142,-1.2085 0.37755,0.377556 -1.30637,1.665748 -2.12755,2.195479 -2.12755,1.372444 z M 263.73684,-87.529662 c -1.24387,-1.586056 -1.2085,-1.621426 0.37756,-0.377556 0.9625,0.754845 1.75,1.542345 1.75,1.75 0,0.823035 -0.82119,0.293304 -2.12756,-1.372444 z m 286.12756,1.372444 c 0,-0.207655 0.7875,-0.995155 1.75,-1.75 1.58605,-1.24387 1.62142,-1.2085 0.37755,0.377556 -1.30637,1.665748 -2.12755,2.195479 -2.12755,1.372444 z M 184.94334,-188.36299 c 0.048,-1.16495 0.28494,-1.40191 0.60417,-0.60418 0.28887,0.72188 0.25334,1.58439 -0.0789,1.91668 -0.33229,0.33229 -0.56864,-0.25834 -0.52522,-1.3125 z m 445,0 c 0.048,-1.16495 0.28494,-1.40191 0.60417,-0.60418 0.28887,0.72188 0.25334,1.58439 -0.079,1.91668 -0.33229,0.33229 -0.56864,-0.25834 -0.52522,-1.3125 z m -413,-3 c 0.048,-1.16495 0.28494,-1.40191 0.60417,-0.60418 0.28887,0.72188 0.25334,1.58439 -0.0789,1.91668 -0.33229,0.33229 -0.56864,-0.25834 -0.52522,-1.3125 z m 381,0 c 0.048,-1.16495 0.28494,-1.40191 0.60417,-0.60418 0.28887,0.72188 0.25334,1.58439 -0.079,1.91668 -0.33229,0.33229 -0.56864,-0.25834 -0.52522,-1.3125 z m -413.92105,-7.41668 c 0,-1.375 0.22697,-1.9375 0.50439,-1.25 0.27741,0.6875 0.27741,1.8125 0,2.5 -0.27742,0.6875 -0.50439,0.125 -0.50439,-1.25 z m 447,0 c 0,-1.375 0.22697,-1.9375 0.50439,-1.25 0.27741,0.6875 0.27741,1.8125 0,2.5 -0.27742,0.6875 -0.50439,0.125 -0.50439,-1.25 z m -415,-3 c 0,-1.375 0.22697,-1.9375 0.50439,-1.25 0.27741,0.6875 0.27741,1.8125 0,2.5 -0.27742,0.6875 -0.50439,0.125 -0.50439,-1.25 z m 383,0 c 0,-1.375 0.22697,-1.9375 0.50439,-1.25 0.27741,0.6875 0.27741,1.8125 0,2.5 -0.27742,0.6875 -0.50439,0.125 -0.50439,-1.25 z m -383,-26 c 0,-1.375 0.22697,-1.9375 0.50439,-1.25 0.27741,0.6875 0.27741,1.8125 0,2.5 -0.27742,0.6875 -0.50439,0.125 -0.50439,-1.25 z m 383,0 c 0,-1.375 0.22697,-1.9375 0.50439,-1.25 0.27741,0.6875 0.27741,1.8125 0,2.5 -0.27742,0.6875 -0.50439,0.125 -0.50439,-1.25 z m -415,-3 c 0,-1.375 0.22697,-1.9375 0.50439,-1.25 0.27741,0.6875 0.27741,1.8125 0,2.5 -0.27742,0.6875 -0.50439,0.125 -0.50439,-1.25 z m 447,0 c 0,-1.375 0.22697,-1.9375 0.50439,-1.25 0.27741,0.6875 0.27741,1.8125 0,2.5 -0.27742,0.6875 -0.50439,0.125 -0.50439,-1.25 z m -414.07895,-7.58332 c 0.048,-1.16495 0.28494,-1.40191 0.60417,-0.60418 0.28887,0.72188 0.25334,1.58439 -0.0789,1.91668 -0.33229,0.33229 -0.56864,-0.25834 -0.52522,-1.3125 z m 381,0 c 0.048,-1.16495 0.28494,-1.40191 0.60417,-0.60418 0.28887,0.72188 0.25334,1.58439 -0.079,1.91668 -0.33229,0.33229 -0.56864,-0.25834 -0.52522,-1.3125 z m -413,-3 c 0.048,-1.16495 0.28494,-1.40191 0.60417,-0.60418 0.28887,0.72188 0.25334,1.58439 -0.0789,1.91668 -0.33229,0.33229 -0.56864,-0.25834 -0.52522,-1.3125 z m 445,0 c 0.048,-1.16495 0.28494,-1.40191 0.60417,-0.60418 0.28887,0.72188 0.25334,1.58439 -0.079,1.91668 -0.33229,0.33229 -0.56864,-0.25834 -0.52522,-1.3125 z M 262.8644,-341.15721 c 0,-0.20766 0.7875,-0.99516 1.75,-1.75 1.58605,-1.24388 1.62142,-1.20851 0.37755,0.37754 -1.30637,1.66575 -2.12755,2.19548 -2.12755,1.37246 z m 287.87244,-1.37246 c -1.24387,-1.58605 -1.2085,-1.62142 0.37756,-0.37754 1.66574,1.30637 2.19548,2.12754 1.37244,2.12754 -0.20765,0 -0.99515,-0.7875 -1.75,-1.75 z M 278.8644,-357.15721 c 0,-0.20766 0.7875,-0.99516 1.75,-1.75 1.58605,-1.24388 1.62142,-1.20851 0.37755,0.37754 -1.30637,1.66575 -2.12755,2.19548 -2.12755,1.37246 z m 255.87244,-1.37246 c -1.24387,-1.58605 -1.2085,-1.62142 0.37756,-0.37754 1.66574,1.30637 2.19548,2.12754 1.37244,2.12754 -0.20765,0 -0.99515,-0.7875 -1.75,-1.75 z m 42,-3 c -1.24387,-1.58605 -1.2085,-1.62142 0.37756,-0.37754 1.66574,1.30637 2.19548,2.12754 1.37244,2.12754 -0.20765,0 -0.99515,-0.7875 -1.75,-1.75 z M 383.6769,-405.46278 c 0.72187,-0.28886 1.58437,-0.25335 1.91666,0.0789 0.33229,0.33229 -0.25833,0.56864 -1.3125,0.52522 -1.16494,-0.048 -1.4019,-0.28494 -0.60416,-0.60417 z m 47,0 c 0.72187,-0.28886 1.58437,-0.25335 1.91666,0.0789 0.33229,0.33229 -0.25833,0.56864 -1.3125,0.52522 -1.16494,-0.048 -1.4019,-0.28494 -0.60416,-0.60417 z m -37.0625,-0.97917 c 0.6875,-0.2774 1.8125,-0.2774 2.5,0 0.6875,0.27741 0.125,0.50439 -1.25,0.50439 -1.375,0 -1.9375,-0.22698 -1.25,-0.50439 z m 26,0 c 0.6875,-0.2774 1.8125,-0.2774 2.5,0 0.6875,0.27741 0.125,0.50439 -1.25,0.50439 -1.375,0 -1.9375,-0.22698 -1.25,-0.50439 z m -38.9375,-31.02083 c 0.72187,-0.28886 1.58437,-0.25335 1.91666,0.0789 0.33229,0.33229 -0.25833,0.56864 -1.3125,0.52522 -1.16494,-0.048 -1.4019,-0.28494 -0.60416,-0.60417 z m 53,0 c 0.72187,-0.28886 1.58437,-0.25335 1.91666,0.0789 0.33229,0.33229 -0.25833,0.56864 -1.3125,0.52522 -1.16494,-0.048 -1.4019,-0.28494 -0.60416,-0.60417 z m -43.0625,-0.97917 c 0.6875,-0.2774 1.8125,-0.2774 2.5,0 0.6875,0.27741 0.125,0.50439 -1.25,0.50439 -1.375,0 -1.9375,-0.22698 -1.25,-0.50439 z m 32,0 c 0.6875,-0.2774 1.8125,-0.2774 2.5,0 0.6875,0.27741 0.125,0.50439 -1.25,0.50439 -1.375,0 -1.9375,-0.22698 -1.25,-0.50439 z"
         id="path4" /><path
         style="fill:#a0be56"
         d="m 452.67836,-57.791979 c -27.80887,-4.400579 -48.88002,-18.785773 -59.30557,-40.487683 -6.1938,-12.893068 -7.01204,-17.642908 -6.97673,-40.499998 0.0174,-11.275 0.38297,-23.05282 0.81233,-26.17293 l 0.78066,-5.67293 3.68767,1.65407 c 2.78605,1.24967 6.7439,1.6587 16.18768,1.67294 12.40597,0.0187 12.55928,-0.009 20.38107,-3.7441 8.99894,-4.29671 18.86783,-13.4702 21.99841,-20.44833 l 1.87948,-4.18942 4.62052,3.84462 c 9.2773,7.7194 18.08255,10.89119 39.12052,14.0918 18.82327,2.86368 25.39463,4.52433 32.14906,8.12442 13.82874,7.37064 21.8272,22.70264 21.8272,41.83986 0,14.00256 -4.26608,25.23631 -14.0468,36.989031 -11.05108,13.279226 -32.59348,26.846977 -49.2284,31.004845 -9.16063,2.289684 -25.82234,3.270004 -33.8871,1.993805 z M 278.06325,-128.27226 c -15.29138,-2.79376 -29.90971,-12.68509 -37.70003,-25.50933 -7.63198,-12.5636 -12.57822,-36.13019 -11.07195,-52.75285 2.00237,-22.09749 11.9851,-42.83317 27.89834,-57.94919 22.04679,-20.94229 50.57986,-26.72755 77.62365,-15.73867 7.1332,2.89846 22.31632,11.81541 35.08801,20.60694 l 8.53686,5.87643 -5.36378,5.5378 c -3.34506,3.45359 -6.74619,8.43271 -9.03687,13.22963 -3.6287,7.59889 -3.67308,7.84388 -3.67308,20.27598 v 12.58415 l 4.06403,8.17739 4.06403,8.17738 -4.06403,1.0801 c -11.35066,3.01669 -20.42937,10.34298 -34.56965,27.89683 -12.25122,15.20875 -15.79444,18.87233 -22.40791,23.16903 -9.10576,5.91591 -17.69072,7.4754 -29.38762,5.33838 z m 177.40813,-95.08919 c -0.33384,-0.86999 -0.60698,-2.34518 -0.60698,-3.27822 0,-0.93303 -1.57439,-4.98161 -3.49864,-8.99684 -4.76015,-9.93278 -12.92072,-18.01619 -23.03928,-22.82147 -6.79701,-3.22789 -8.77033,-3.68901 -17.60805,-4.11458 l -9.95317,-0.47926 0.79957,-3.11393 c 0.43976,-1.71264 0.79016,-7.83892 0.77866,-13.61392 -0.0225,-11.2787 -0.62344,-13.44824 -12.04967,-43.5 -3.49749,-9.19862 -3.80728,-10.84143 -3.8658,-20.5 -0.0581,-9.58614 0.18414,-11.00457 2.78321,-16.29759 5.87551,-11.9655 19.66287,-23.73129 32.58104,-27.80384 8.96641,-2.82672 23.63072,-2.82181 34.42631,0.0115 15.98755,4.196 34.06556,14.42471 44.84709,25.37493 26.40025,26.81333 33.32765,67.28152 16.54495,96.65166 -4.51274,7.8974 -15.74031,19.22545 -24.84098,25.06328 -7.1253,4.57069 -34.46257,18.97361 -36.04826,18.9924 -0.35365,0.004 -0.91615,-0.70419 -1.25,-1.57417 z"
         id="path3" /><path
         style="fill:#5d5d5d"
         d="m 395.1144,8.531012 c 0.9625,-0.251527 2.5375,-0.251527 3.5,0 0.9625,0.251528 0.175,0.457323 -1.75,0.457323 -1.925,0 -2.7125,-0.205795 -1.75,-0.457323 z m 22,0 c 0.9625,-0.251527 2.5375,-0.251527 3.5,0 0.9625,0.251528 0.175,0.457323 -1.75,0.457323 -1.925,0 -2.7125,-0.205795 -1.75,-0.457323 z m -26.4375,-31.993788 c 0.72187,-0.288871 1.58437,-0.253345 1.91666,0.07895 0.33229,0.332291 -0.25833,0.56864 -1.3125,0.525219 -1.16494,-0.04798 -1.4019,-0.28494 -0.60416,-0.604166 z m 33,0 c 0.72187,-0.288871 1.58437,-0.253345 1.91666,0.07895 0.33229,0.332291 -0.25833,0.56864 -1.3125,0.525219 -1.16494,-0.04798 -1.4019,-0.28494 -0.60416,-0.604166 z M 257.73684,-48.529662 c -1.24387,-1.586056 -1.2085,-1.621426 0.37756,-0.377556 0.9625,0.754845 1.75,1.542345 1.75,1.75 0,0.823035 -0.82119,0.293304 -2.12756,-1.372444 z m 298.12756,1.372444 c 0,-0.207655 0.7875,-0.995155 1.75,-1.75 1.58605,-1.24387 1.62142,-1.2085 0.37755,0.377556 -1.30637,1.665748 -2.12755,2.195479 -2.12755,1.372444 z M 240.73684,-65.529662 c -1.24387,-1.586056 -1.2085,-1.621426 0.37756,-0.377556 0.9625,0.754845 1.75,1.542345 1.75,1.75 0,0.823035 -0.82119,0.293304 -2.12756,-1.372444 z m 332.12756,1.372444 c 0,-0.207655 0.7875,-0.995155 1.75,-1.75 1.58605,-1.24387 1.62142,-1.2085 0.37755,0.377556 -1.30637,1.665748 -2.12755,2.195479 -2.12755,1.372444 z M 384.73684,-192.52967 c -1.24387,-1.58605 -1.2085,-1.62142 0.37756,-0.37755 1.66574,1.30637 2.19548,2.12755 1.37244,2.12755 -0.20765,0 -0.99515,-0.7875 -1.75,-1.75 z m 44.12756,1.37245 c 0,-0.20766 0.7875,-0.99516 1.75,-1.75 1.58605,-1.24387 1.62142,-1.2085 0.37755,0.37755 -1.30637,1.66575 -2.12755,2.19548 -2.12755,1.37245 z M 215.94334,-198.363 c 0.048,-1.16494 0.28494,-1.4019 0.60417,-0.60417 0.28887,0.72188 0.25334,1.58438 -0.0789,1.91667 -0.33229,0.33229 -0.56864,-0.25833 -0.52522,-1.3125 z m 383,0 c 0.048,-1.16494 0.28494,-1.4019 0.60417,-0.60417 0.28887,0.72188 0.25334,1.58438 -0.079,1.91667 -0.33229,0.33229 -0.56864,-0.25833 -0.52522,-1.3125 z m -414.84694,-5.41667 c 0,-1.925 0.20579,-2.7125 0.45732,-1.75 0.25153,0.9625 0.25153,2.5375 0,3.5 -0.25153,0.9625 -0.45732,0.175 -0.45732,-1.75 z m 447,0 c 0,-1.925 0.20579,-2.7125 0.45732,-1.75 0.25153,0.9625 0.25153,2.5375 0,3.5 -0.25153,0.9625 -0.45732,0.175 -0.45732,-1.75 z m -447,-22 c 0,-1.925 0.20579,-2.7125 0.45732,-1.75 0.25153,0.9625 0.25153,2.5375 0,3.5 -0.25153,0.9625 -0.45732,0.175 -0.45732,-1.75 z m 447,0 c 0,-1.925 0.20579,-2.7125 0.45732,-1.75 0.25153,0.9625 0.25153,2.5375 0,3.5 -0.25153,0.9625 -0.45732,0.175 -0.45732,-1.75 z M 215.94334,-231.363 c 0.048,-1.16494 0.28494,-1.4019 0.60417,-0.60417 0.28887,0.72188 0.25334,1.58438 -0.0789,1.91667 -0.33229,0.33229 -0.56864,-0.25833 -0.52522,-1.3125 z m 383,0 c 0.048,-1.16494 0.28494,-1.4019 0.60417,-0.60417 0.28887,0.72188 0.25334,1.58438 -0.079,1.91667 -0.33229,0.33229 -0.56864,-0.25833 -0.52522,-1.3125 z m -215.07894,-4.79422 c 0,-0.20766 0.7875,-0.99516 1.75,-1.75 1.58605,-1.24387 1.62142,-1.2085 0.37755,0.37755 -1.30637,1.66575 -2.12755,2.19548 -2.12755,1.37245 z m 45.87244,-1.37245 c -1.24387,-1.58605 -1.2085,-1.62142 0.37756,-0.37755 0.9625,0.75484 1.75,1.54234 1.75,1.75 0,0.82303 -0.82119,0.2933 -2.12756,-1.37245 z M 239.8644,-363.15721 c 0,-0.20766 0.7875,-0.99516 1.75,-1.75 1.58605,-1.24388 1.62142,-1.20851 0.37755,0.37754 -1.30637,1.66575 -2.12755,2.19548 -2.12755,1.37246 z m 333.87244,-1.37246 c -1.24387,-1.58605 -1.2085,-1.62142 0.37756,-0.37754 1.66574,1.30637 2.19548,2.12754 1.37244,2.12754 -0.20765,0 -0.99515,-0.7875 -1.75,-1.75 z M 256.8644,-380.15721 c 0,-0.20766 0.7875,-0.99516 1.75,-1.75 1.58605,-1.24388 1.62142,-1.20851 0.37755,0.37754 -1.30637,1.66575 -2.12755,2.19548 -2.12755,1.37246 z m 299.87244,-1.37246 c -1.24387,-1.58605 -1.2085,-1.62142 0.37756,-0.37754 1.66574,1.30637 2.19548,2.12754 1.37244,2.12754 -0.20765,0 -0.99515,-0.7875 -1.75,-1.75 z M 390.6769,-406.46278 c 0.72187,-0.28886 1.58437,-0.25335 1.91666,0.0789 0.33229,0.33229 -0.25833,0.56864 -1.3125,0.52522 -1.16494,-0.048 -1.4019,-0.28494 -0.60416,-0.60417 z m 33,0 c 0.72187,-0.28886 1.58437,-0.25335 1.91666,0.0789 0.33229,0.33229 -0.25833,0.56864 -1.3125,0.52522 -1.16494,-0.048 -1.4019,-0.28494 -0.60416,-0.60417 z m -28.5625,-32.00621 c 0.9625,-0.25153 2.5375,-0.25153 3.5,0 0.9625,0.25153 0.175,0.45732 -1.75,0.45732 -1.925,0 -2.7125,-0.2058 -1.75,-0.45732 z m 22,0 c 0.9625,-0.25153 2.5375,-0.25153 3.5,0 0.9625,0.25153 0.175,0.45732 -1.75,0.45732 -1.925,0 -2.7125,-0.2058 -1.75,-0.45732 z"
         id="path2" /><path
         style="fill:#242424"
         d="m 395.3644,8.616611 c -21.16501,-1.567785 -40.57219,-5.369445 -59,-11.557471 -56.41976,-18.945653 -104.13393,-61.126519 -129.90341,-114.8388 -15.09733,-31.4679 -21.8953,-61.58412 -21.8953,-97 0,-20.72577 1.62723,-34.709 6.2326,-53.55838 19.5702,-80.09919 83.40854,-143.93753 163.50772,-163.50773 18.84938,-4.60536 32.83261,-6.23259 53.55839,-6.23259 20.72577,0 34.709,1.62723 53.55838,6.23259 64.15835,15.67547 119.21179,60.38479 147.84503,120.06611 15.09732,31.46791 21.89529,61.58413 21.89529,97 0,20.72577 -1.62723,34.70901 -6.23259,53.55838 -21.52915,88.117 -96.21155,155.528407 -185.96787,167.862243 -11.0938,1.524452 -35.0402,2.609579 -43.59824,1.975648 z m 50.5,-34.863169 c 37.26569,-7.853254 67.97384,-24.043132 94.87113,-50.017741 29.48009,-28.468801 47.13566,-60.508821 55.85929,-101.369261 2.51565,-11.783 2.69992,-14.31825 2.69992,-37.1461 0,-22.82785 -0.18427,-25.36311 -2.69992,-37.14609 -8.20089,-38.41201 -24.05614,-68.63689 -50.21506,-95.72504 -17.42187,-18.04074 -32.31534,-28.98041 -54.01536,-39.6758 -15.41763,-7.59895 -29.25654,-12.345 -47,-16.11862 -12.18166,-2.59075 -14.54227,-2.76479 -37.5,-2.76479 -22.95774,0 -25.31835,0.17404 -37.5,2.76479 -17.74346,3.77362 -31.58238,8.51967 -47,16.11862 -21.70003,10.69539 -36.59349,21.63506 -54.01537,39.6758 -26.15892,27.08815 -42.01416,57.31303 -50.21506,95.72504 -2.51565,11.78298 -2.69992,14.31824 -2.69992,37.14609 0,22.82785 0.18427,25.36311 2.69992,37.1461 6.8622,32.14172 20.26498,60.58741 39.73929,84.341602 7.72601,9.423952 24.77358,25.771499 33.99114,32.595349 22.0902,16.353606 46.23111,27.504208 72.11426,33.309324 17.72735,3.975921 23.76344,4.507339 46.88574,4.127825 18.51532,-0.303898 23.23527,-0.718574 34,-2.987098 z M 399.94576,-184.3168 c -7.00751,-1.95043 -11.08914,-4.52873 -15.99846,-10.10602 -7.21004,-8.19103 -9.37662,-20.2693 -5.62298,-31.34697 2.56811,-7.57892 10.97102,-15.98184 18.54995,-18.54994 12.28503,-4.16276 24.11621,-1.49385 33.07013,7.46007 12.66506,12.66506 12.66506,31.49494 0,44.16 -8.28401,8.284 -19.29699,11.36149 -29.99864,8.38286 z"
         id="path1" /></g></g></svg>
