<?xml version="1.0" encoding="UTF-8" standalone="no"?>
<!-- Created with Inkscape (http://www.inkscape.org/) -->

<svg
   width="512"
   height="512"
   viewBox="0 0 512 512"
   version="1.1"
   id="svg1"
   inkscape:version="1.3 (0e150ed, 2023-07-21)"
   sodipodi:docname="shan.svg"
   xmlns:inkscape="http://www.inkscape.org/namespaces/inkscape"
   xmlns:sodipodi="http://sodipodi.sourceforge.net/DTD/sodipodi-0.dtd"
   xmlns="http://www.w3.org/2000/svg"
   xmlns:svg="http://www.w3.org/2000/svg">
  <sodipodi:namedview
     id="namedview1"
     pagecolor="#ffffff"
     bordercolor="#000000"
     borderopacity="0.25"
     inkscape:showpageshadow="2"
     inkscape:pageopacity="0.0"
     inkscape:pagecheckerboard="0"
     inkscape:deskcolor="#d1d1d1"
     inkscape:document-units="px"
     inkscape:zoom="1.0138106"
     inkscape:cx="257.93772"
     inkscape:cy="291.96774"
     inkscape:window-width="1712"
     inkscape:window-height="1041"
     inkscape:window-x="0"
     inkscape:window-y="43"
     inkscape:window-maximized="1"
     inkscape:current-layer="layer1" />
  <defs
     id="defs1">
    <clipPath
       clipPathUnits="userSpaceOnUse"
       id="clipPath3">
      <path
         d="M 0,600 H 800 V 0 H 0 Z"
         transform="translate(-444.75981,-284.13481)"
         id="path3" />
    </clipPath>
  </defs>
  <g
     inkscape:label="Layer 1"
     inkscape:groupmode="layer"
     id="layer1">
    <path
       id="path2"
       d="m 0,0 -98,1.47 c 0,0 -30.795,1.508 -30.795,41.858 0,40.36 32.795,42.538 32.795,42.538 H 63.67 c -23.18,36 -63.09,59.011 -108.46,59.011 -71.62,0 -129.7,-58.121 -129.7,-129.8 0,-9.891 1.11,-19.212 3.2,-29.212 h -23.36 c -1.78,10 -2.709,19.433 -2.709,29.273 0,84.279 68.339,152.559 152.569,152.559 71.05,0 130.77,-48.831 147.78,-114.831 H -90.88 c 0,0 -6.17,1.61 -6.17,-10.361 0,-11.97 7.05,-11.639 7.05,-11.639 h 0.5 l 98.17,0.781 c 0,0 30.83,-3.141 30.83,-43.501 0,-40.359 -32.67,-43.281 -32.67,-43.281 h -160.92 c 23.05,-36 63.39,-59.517 109.3,-59.517 71.69,0 129.75,57.978 129.75,129.669 0,10.07 -1.15,19.849 -3.31,28.849 h 23.37 c 1.85,-9 2.82,-18.869 2.82,-28.909 0,-84.291 -68.34,-152.329 -152.63,-152.329 -71.2,0 -131.04,48.237 -147.86,114.237 h 16.15 l 178.21,1.363 c 0,0 6.17,-1.792 6.17,10.178 0,11.971 -7.05,11.459 -7.05,11.459 M 126.02,15.92 c 0,19.36 11.77,36.04 28.56,43.121 -5.35,24.939 -15.28,48.199 -28.89,68.779 -16.85,-6.97 -36.93,-3.73 -50.71,9.82 -13.84,13.61 -17.4,33.64 -10.71,50.6 -19.86,12.61 -42.01,21.86 -65.71,26.94 -7.15,-16.79 -23.77,-28.56 -43.121,-28.5 -19.419,0 -35.989,11.77 -43.128,28.56 -24.541,-5.25 -47.411,-14.9 -67.831,-28.17 6.86,-16.9 3.459,-36.93 -10.21,-50.66 -13.661,-13.77 -33.75,-17.23 -50.709,-10.43 -12.941,-20.14 -22.481,-42.73 -27.661,-66.939 16.789,-7.081 28.61,-23.761 28.61,-43.121 0,-19.41 -11.821,-36.04 -28.61,-43.12 5.35,-24.941 15.28,-48.14 28.84,-68.78 16.84,6.97 36.981,3.74 50.81,-9.88 13.78,-13.61 17.41,-33.63 10.72,-50.59 19.8,-12.611 41.94,-21.81 65.65,-26.941 7.141,16.781 23.769,28.551 43.18,28.551 19.36,-0.051 35.98,-11.82 43.07,-28.67 24.54,5.25 47.47,14.949 67.89,28.23 -6.86,16.84 -3.46,36.929 10.2,50.71 13.67,13.719 33.75,17.179 50.66,10.37 12.94,20.2 22.48,42.79 27.66,67 -16.79,7.08 -28.56,23.71 -28.56,43.12"
       style="fill:#676767;fill-opacity:1;fill-rule:nonzero;stroke:none"
       transform="matrix(1.2541387,0,0,-1.2541387,312.56326,276.74803)"
       clip-path="url(#clipPath3)" />
  </g>
</svg>
